<svg width="128" height="34" fill="none" xmlns="http://www.w3.org/2000/svg"><g clip-path="url(#a)"><path d="M60.307 26.305h-3.808l.1-2.021a5.167 5.167 0 0 1-1.948 1.93 5.365 5.365 0 0 1-2.734.608 5.103 5.103 0 0 1-2.465-.498 5.308 5.308 0 0 1-1.963-1.627 8.712 8.712 0 0 1-1.66-5.57 8.71 8.71 0 0 1 1.693-5.618 5.867 5.867 0 0 1 2.08-1.544 5.669 5.669 0 0 1 2.514-.478c.926-.03 1.84.218 2.634.712a5.777 5.777 0 0 1 1.937 2.148V12.05h3.709v14.255h-.089Zm-3.62-7.053a4.812 4.812 0 0 0-.874-3.044 3.393 3.393 0 0 0-1.15-.855 3.28 3.28 0 0 0-1.385-.293c-.475.005-.944.11-1.38.306a3.544 3.544 0 0 0-1.155.842A4.094 4.094 0 0 0 50 17.636a4.19 4.19 0 0 0-.142 1.616 4.812 4.812 0 0 0 .874 3.044 3.584 3.584 0 0 0 2.54 1.067c.949 0 1.86-.382 2.541-1.067.654-.862.966-1.95.874-3.044ZM73.887 15.806c.292-1.199.902-2.29 1.76-3.147a4.005 4.005 0 0 1 2.734-1.01c.388 0 .875.103 1.273.103h.277l-.587 4.457-.874-.299a3.204 3.204 0 0 0-.974-.103 3.13 3.13 0 0 0-1.416.146 3.222 3.222 0 0 0-1.218.761c-.6.96-.876 2.1-.787 3.24v6.283H70.08v-14.22h3.907l-.1 3.79ZM87.558 8.478c.003-.28.085-.552.235-.783.15-.232.362-.413.61-.522.248-.108.521-.14.786-.09.264.05.51.18.704.372.14.122.249.279.317.455.067.176.092.367.07.556-.003.28-.086.554-.237.786a1.394 1.394 0 0 1-.615.52c-.25.108-.524.138-.79.085a1.367 1.367 0 0 1-.704-.38 2.184 2.184 0 0 1-.376-1Zm.487 17.84V13.44h1.76v12.866l-1.76.011ZM98.395 26.306l6.93-11.246h-6.442v-1.62h9.375l-6.841 11.246h7.029v1.62h-10.05ZM127.894 19.93h-9.862a7.167 7.167 0 0 0 1.173 3.917c.378.45.844.81 1.367 1.055a3.888 3.888 0 0 0 1.666.37 3.735 3.735 0 0 0 2.446-.816 5.822 5.822 0 0 0 1.76-2.297l1.561.908a6.231 6.231 0 0 1-2.347 2.94 5.616 5.616 0 0 1-3.42.908 5.358 5.358 0 0 1-2.426-.44 5.54 5.54 0 0 1-2.001-1.49 6.84 6.84 0 0 1-1.312-2.308 7.024 7.024 0 0 1-.349-2.655 7.364 7.364 0 0 1 1.66-5.066 5.401 5.401 0 0 1 1.995-1.506 5.203 5.203 0 0 1 2.433-.423 4.972 4.972 0 0 1 2.255.425 5.152 5.152 0 0 1 1.852 1.401 6.988 6.988 0 0 1 1.56 4.767l-.011.31Zm-2.047-1.516a3.736 3.736 0 0 0-.302-1.499 3.598 3.598 0 0 0-.872-1.235 4.002 4.002 0 0 0-2.733-1.01 3.61 3.61 0 0 0-2.635 1.01 4.448 4.448 0 0 0-1.273 2.734h7.815Z" fill="#2A2938"/><path d="M32.815 30.802c0 .428-.08.851-.239 1.246a3.267 3.267 0 0 1-.68 1.057 3.132 3.132 0 0 1-1.018.706 3.038 3.038 0 0 1-2.402 0 3.134 3.134 0 0 1-1.018-.706 3.267 3.267 0 0 1-.68-1.057 3.362 3.362 0 0 1-.239-1.246v-.38a16.89 16.89 0 0 0 4.63-5.963 17.523 17.523 0 0 0 1.635-7.467" fill="url(#b)"/><path d="M32.805 17.036 26.54 29.218v1.684c.01.27.05.538.12.8 4.788-3.895 6.145-9.384 6.145-14.666Z" fill="#2A2938" style="mix-blend-mode:multiply" opacity=".7"/><path d="M26.571 3.27v.38C23.511 1.141 19.685-.149 15.788.014 11.79.303 8.02 2.046 5.14 4.937 2.26 7.827.455 11.68.043 15.816c-.16 2.282.125 4.574.838 6.74a17.176 17.176 0 0 0 3.31 5.862A16.461 16.461 0 0 0 9.45 32.47a15.863 15.863 0 0 0 12.824.477 16.34 16.34 0 0 0 5.523-3.65 17.058 17.058 0 0 0 3.708-5.601 17.579 17.579 0 0 0 1.3-6.66V3.27c0-.856-.325-1.677-.904-2.287a3.084 3.084 0 0 0-2.19-.97c-.413 0-.821.085-1.202.249-.38.163-.726.403-1.018.706a3.267 3.267 0 0 0-.68 1.056 3.364 3.364 0 0 0-.239 1.246Zm-5.316 10.498a.802.802 0 0 1-.31.53.74.74 0 0 1-.585.13 4.1 4.1 0 0 0-.83-.078 2.74 2.74 0 0 0-1.223.159 2.825 2.825 0 0 0-1.042.68 4.435 4.435 0 0 0-.69 2.799v4.666a.776.776 0 0 1-.215.538.72.72 0 0 1-.518.223h-1.995a.72.72 0 0 1-.519-.223.776.776 0 0 1-.215-.538V11.833c0-.202.078-.396.215-.538a.72.72 0 0 1 .519-.223h1.92a.71.71 0 0 1 .525.23.765.765 0 0 1 .207.553l-.054 2.395a5.726 5.726 0 0 1 1.5-2.686 3.439 3.439 0 0 1 2.415-.895l.56.056a.715.715 0 0 1 .493.292.773.773 0 0 1 .144.57l-.302 2.181Z" fill="url(#c)"/></g><defs><linearGradient id="b" x1="29.677" y1="16.992" x2="29.677" y2="34.059" gradientUnits="userSpaceOnUse"><stop stop-color="#141323"/><stop offset="1" stop-color="#2E2D43"/></linearGradient><linearGradient id="c" x1="16.402" y1="0" x2="16.402" y2="34.075" gradientUnits="userSpaceOnUse"><stop stop-color="#141323"/><stop offset="1" stop-color="#2E2D43"/></linearGradient><clipPath id="a"><path fill="#fff" d="M0 0h128v34H0z"/></clipPath></defs></svg>